<mxfile host="Electron" agent="Mozilla/5.0 (Windows NT 10.0; Win64; x64) AppleWebKit/537.36 (KHTML, like Gecko) draw.io/24.7.17 Chrome/128.0.6613.36 Electron/32.0.1 Safari/537.36" version="24.7.17">
  <diagram name="PÃ¡gina-1" id="ZV2-jpieJpdfJwQcwzDR">
    <mxGraphModel dx="1219" dy="1882" grid="1" gridSize="10" guides="1" tooltips="1" connect="1" arrows="1" fold="1" page="1" pageScale="1" pageWidth="827" pageHeight="1169" math="0" shadow="0">
      <root>
        <mxCell id="0" />
        <mxCell id="1" parent="0" />
        <mxCell id="APDBaXCaX2FsJT3Yiius-33" value="VPC" style="sketch=0;outlineConnect=0;gradientColor=none;html=1;whiteSpace=wrap;fontSize=12;fontStyle=0;shape=mxgraph.aws4.group;grIcon=mxgraph.aws4.group_vpc;strokeColor=#B6BABF;fillColor=none;verticalAlign=top;align=left;spacingLeft=30;fontColor=#B6BABF;dashed=0;strokeWidth=3;" parent="1" vertex="1">
          <mxGeometry x="14" y="40" width="786" height="450" as="geometry" />
        </mxCell>
        <mxCell id="APDBaXCaX2FsJT3Yiius-35" value="Private subnet" style="points=[[0,0],[0.25,0],[0.5,0],[0.75,0],[1,0],[1,0.25],[1,0.5],[1,0.75],[1,1],[0.75,1],[0.5,1],[0.25,1],[0,1],[0,0.75],[0,0.5],[0,0.25]];outlineConnect=0;gradientColor=none;html=1;whiteSpace=wrap;fontSize=12;fontStyle=0;container=1;pointerEvents=0;collapsible=0;recursiveResize=0;shape=mxgraph.aws4.group;grIcon=mxgraph.aws4.group_security_group;grStroke=0;strokeColor=#00A4A6;fillColor=#E6F6F7;verticalAlign=top;align=left;spacingLeft=30;fontColor=#147EBA;dashed=0;" parent="1" vertex="1">
          <mxGeometry x="50" y="70" width="310" height="380" as="geometry" />
        </mxCell>
        <mxCell id="APDBaXCaX2FsJT3Yiius-8" value="SUBNET-PUBLIC" style="text;html=1;align=center;verticalAlign=middle;whiteSpace=wrap;rounded=0;" parent="1" vertex="1">
          <mxGeometry x="450" y="90" width="110" height="30" as="geometry" />
        </mxCell>
        <mxCell id="APDBaXCaX2FsJT3Yiius-12" value="" style="sketch=0;points=[[0,0,0],[0.25,0,0],[0.5,0,0],[0.75,0,0],[1,0,0],[0,1,0],[0.25,1,0],[0.5,1,0],[0.75,1,0],[1,1,0],[0,0.25,0],[0,0.5,0],[0,0.75,0],[1,0.25,0],[1,0.5,0],[1,0.75,0]];outlineConnect=0;fontColor=#232F3E;fillColor=#8C4FFF;strokeColor=#ffffff;dashed=0;verticalLabelPosition=bottom;verticalAlign=top;align=center;html=1;fontSize=12;fontStyle=0;aspect=fixed;shape=mxgraph.aws4.resourceIcon;resIcon=mxgraph.aws4.api_gateway;" parent="1" vertex="1">
          <mxGeometry x="359" y="-101" width="70" height="70" as="geometry" />
        </mxCell>
        <mxCell id="APDBaXCaX2FsJT3Yiius-17" value="" style="endArrow=classic;html=1;rounded=0;entryX=0.5;entryY=1;entryDx=0;entryDy=0;entryPerimeter=0;startArrow=block;startFill=1;exitX=0.205;exitY=0.51;exitDx=0;exitDy=0;exitPerimeter=0;" parent="1" source="8Y0MOXK_Wzp6ZwByNxdc-7" edge="1">
          <mxGeometry width="50" height="50" relative="1" as="geometry">
            <mxPoint x="350" y="540" as="sourcePoint" />
            <mxPoint x="189.75" y="383" as="targetPoint" />
            <Array as="points">
              <mxPoint x="190" y="540" />
            </Array>
          </mxGeometry>
        </mxCell>
        <mxCell id="APDBaXCaX2FsJT3Yiius-18" value="" style="outlineConnect=0;dashed=0;verticalLabelPosition=bottom;verticalAlign=top;align=center;html=1;shape=mxgraph.aws3.lambda_function;fillColor=#F58534;gradientColor=none;" parent="1" vertex="1">
          <mxGeometry x="150" y="180" width="79.5" height="80" as="geometry" />
        </mxCell>
        <mxCell id="APDBaXCaX2FsJT3Yiius-19" value="Lambda Function" style="text;html=1;align=center;verticalAlign=middle;whiteSpace=wrap;rounded=0;" parent="1" vertex="1">
          <mxGeometry x="160.5" y="150" width="60" height="30" as="geometry" />
        </mxCell>
        <mxCell id="APDBaXCaX2FsJT3Yiius-20" value="" style="endArrow=classic;html=1;rounded=0;exitX=0.5;exitY=1;exitDx=0;exitDy=0;exitPerimeter=0;entryX=0.5;entryY=0;entryDx=0;entryDy=0;entryPerimeter=0;" parent="1" source="APDBaXCaX2FsJT3Yiius-18" edge="1">
          <mxGeometry width="50" height="50" relative="1" as="geometry">
            <mxPoint x="390" y="390" as="sourcePoint" />
            <mxPoint x="189.75" y="320" as="targetPoint" />
          </mxGeometry>
        </mxCell>
        <mxCell id="APDBaXCaX2FsJT3Yiius-23" value="" style="outlineConnect=0;dashed=0;verticalLabelPosition=bottom;verticalAlign=top;align=center;html=1;shape=mxgraph.aws3.internet_gateway;fillColor=#F58536;gradientColor=none;" parent="1" vertex="1">
          <mxGeometry x="360" width="69" height="72" as="geometry" />
        </mxCell>
        <mxCell id="APDBaXCaX2FsJT3Yiius-24" value="Internet Gateway" style="text;html=1;align=center;verticalAlign=middle;whiteSpace=wrap;rounded=0;" parent="1" vertex="1">
          <mxGeometry x="433" y="10" width="110" height="30" as="geometry" />
        </mxCell>
        <mxCell id="APDBaXCaX2FsJT3Yiius-27" value="" style="endArrow=none;dashed=1;html=1;dashPattern=1 3;strokeWidth=2;rounded=0;exitX=1;exitY=0.5;exitDx=0;exitDy=0;entryX=0;entryY=0.5;entryDx=0;entryDy=0;entryPerimeter=0;" parent="1" target="APDBaXCaX2FsJT3Yiius-25" edge="1">
          <mxGeometry width="50" height="50" relative="1" as="geometry">
            <mxPoint x="340" y="270" as="sourcePoint" />
            <mxPoint x="440" y="340" as="targetPoint" />
          </mxGeometry>
        </mxCell>
        <mxCell id="APDBaXCaX2FsJT3Yiius-28" value="" style="endArrow=none;dashed=1;html=1;dashPattern=1 3;strokeWidth=2;rounded=0;exitX=0.5;exitY=1;exitDx=0;exitDy=0;exitPerimeter=0;entryX=-0.007;entryY=0.192;entryDx=0;entryDy=0;entryPerimeter=0;" parent="1" source="APDBaXCaX2FsJT3Yiius-23" edge="1">
          <mxGeometry width="50" height="50" relative="1" as="geometry">
            <mxPoint x="390" y="390" as="sourcePoint" />
            <mxPoint x="435.97" y="152.96000000000004" as="targetPoint" />
            <Array as="points">
              <mxPoint x="395" y="153" />
            </Array>
          </mxGeometry>
        </mxCell>
        <mxCell id="APDBaXCaX2FsJT3Yiius-29" value="" style="endArrow=none;dashed=1;html=1;dashPattern=1 3;strokeWidth=2;rounded=0;exitX=0.855;exitY=0.855;exitDx=0;exitDy=0;exitPerimeter=0;entryX=1;entryY=0.5;entryDx=0;entryDy=0;" parent="1" source="APDBaXCaX2FsJT3Yiius-18" edge="1">
          <mxGeometry width="50" height="50" relative="1" as="geometry">
            <mxPoint x="390" y="390" as="sourcePoint" />
            <mxPoint x="340" y="270" as="targetPoint" />
            <Array as="points">
              <mxPoint x="220" y="270" />
            </Array>
          </mxGeometry>
        </mxCell>
        <mxCell id="APDBaXCaX2FsJT3Yiius-36" value="Public subnet" style="points=[[0,0],[0.25,0],[0.5,0],[0.75,0],[1,0],[1,0.25],[1,0.5],[1,0.75],[1,1],[0.75,1],[0.5,1],[0.25,1],[0,1],[0,0.75],[0,0.5],[0,0.25]];outlineConnect=0;gradientColor=none;html=1;whiteSpace=wrap;fontSize=12;fontStyle=0;container=1;pointerEvents=0;collapsible=0;recursiveResize=0;shape=mxgraph.aws4.group;grIcon=mxgraph.aws4.group_security_group;grStroke=0;strokeColor=#7AA116;fillColor=#F2F6E8;verticalAlign=top;align=left;spacingLeft=30;fontColor=#248814;dashed=0;" parent="1" vertex="1">
          <mxGeometry x="438" y="70" width="312" height="390" as="geometry" />
        </mxCell>
        <mxCell id="APDBaXCaX2FsJT3Yiius-38" value="Mount Target" style="text;html=1;align=center;verticalAlign=middle;whiteSpace=wrap;rounded=0;" parent="APDBaXCaX2FsJT3Yiius-36" vertex="1">
          <mxGeometry x="182" y="280" width="60" height="30" as="geometry" />
        </mxCell>
        <mxCell id="APDBaXCaX2FsJT3Yiius-32" value="Amazon EC2" style="sketch=0;outlineConnect=0;fontColor=#232F3E;gradientColor=none;strokeColor=#ffffff;fillColor=#232F3E;dashed=0;verticalLabelPosition=middle;verticalAlign=bottom;align=center;html=1;whiteSpace=wrap;fontSize=10;fontStyle=1;spacing=3;shape=mxgraph.aws4.productIcon;prIcon=mxgraph.aws4.ec2;" parent="1" vertex="1">
          <mxGeometry x="543" y="150" width="80" height="100" as="geometry" />
        </mxCell>
        <mxCell id="APDBaXCaX2FsJT3Yiius-25" value="" style="outlineConnect=0;dashed=0;verticalLabelPosition=bottom;verticalAlign=top;align=center;html=1;shape=mxgraph.aws3.vpc_nat_gateway;fillColor=#F58536;gradientColor=none;" parent="1" vertex="1">
          <mxGeometry x="414" y="234" width="69" height="72" as="geometry" />
        </mxCell>
        <mxCell id="APDBaXCaX2FsJT3Yiius-22" value="" style="endArrow=classic;html=1;rounded=0;" parent="1" source="APDBaXCaX2FsJT3Yiius-32" edge="1">
          <mxGeometry width="50" height="50" relative="1" as="geometry">
            <mxPoint x="583" y="230" as="sourcePoint" />
            <mxPoint x="583" y="320" as="targetPoint" />
          </mxGeometry>
        </mxCell>
        <mxCell id="APDBaXCaX2FsJT3Yiius-14" value="" style="endArrow=classic;html=1;rounded=0;startArrow=block;startFill=1;exitX=0.89;exitY=0.5;exitDx=0;exitDy=0;exitPerimeter=0;" parent="1" source="8Y0MOXK_Wzp6ZwByNxdc-7" edge="1">
          <mxGeometry width="50" height="50" relative="1" as="geometry">
            <mxPoint x="420" y="540" as="sourcePoint" />
            <mxPoint x="582.4037854889589" y="383" as="targetPoint" />
            <Array as="points">
              <mxPoint x="580" y="540" />
            </Array>
          </mxGeometry>
        </mxCell>
        <mxCell id="APDBaXCaX2FsJT3Yiius-37" value="Mount Target" style="text;html=1;align=center;verticalAlign=middle;whiteSpace=wrap;rounded=0;" parent="1" vertex="1">
          <mxGeometry x="220" y="350" width="69.5" height="30" as="geometry" />
        </mxCell>
        <mxCell id="APDBaXCaX2FsJT3Yiius-39" value="EFS Shared" style="text;html=1;align=center;verticalAlign=middle;whiteSpace=wrap;rounded=0;" parent="1" vertex="1">
          <mxGeometry x="429" y="563" width="60" height="30" as="geometry" />
        </mxCell>
        <mxCell id="APDBaXCaX2FsJT3Yiius-30" value="Nat Gateway" style="text;html=1;align=center;verticalAlign=middle;whiteSpace=wrap;rounded=0;" parent="1" vertex="1">
          <mxGeometry x="400" y="310" width="110" height="30" as="geometry" />
        </mxCell>
        <mxCell id="8Y0MOXK_Wzp6ZwByNxdc-1" value="Api Gateway" style="text;html=1;align=center;verticalAlign=middle;whiteSpace=wrap;rounded=0;" vertex="1" parent="1">
          <mxGeometry x="439" y="-81" width="60" height="30" as="geometry" />
        </mxCell>
        <mxCell id="8Y0MOXK_Wzp6ZwByNxdc-2" value="" style="endArrow=classic;startArrow=classic;html=1;rounded=0;entryX=0.5;entryY=1;entryDx=0;entryDy=0;entryPerimeter=0;" edge="1" parent="1" target="APDBaXCaX2FsJT3Yiius-12">
          <mxGeometry width="50" height="50" relative="1" as="geometry">
            <mxPoint x="395" as="sourcePoint" />
            <mxPoint x="440" y="70" as="targetPoint" />
          </mxGeometry>
        </mxCell>
        <mxCell id="8Y0MOXK_Wzp6ZwByNxdc-4" value="" style="sketch=0;points=[[0,0,0],[0.25,0,0],[0.5,0,0],[0.75,0,0],[1,0,0],[0,1,0],[0.25,1,0],[0.5,1,0],[0.75,1,0],[1,1,0],[0,0.25,0],[0,0.5,0],[0,0.75,0],[1,0.25,0],[1,0.5,0],[1,0.75,0]];outlineConnect=0;fontColor=#232F3E;fillColor=#7AA116;strokeColor=#ffffff;dashed=0;verticalLabelPosition=bottom;verticalAlign=top;align=center;html=1;fontSize=12;fontStyle=0;aspect=fixed;shape=mxgraph.aws4.resourceIcon;resIcon=mxgraph.aws4.elastic_file_system;" vertex="1" parent="1">
          <mxGeometry x="160.5" y="326" width="54" height="54" as="geometry" />
        </mxCell>
        <mxCell id="8Y0MOXK_Wzp6ZwByNxdc-7" value="" style="outlineConnect=0;dashed=0;verticalLabelPosition=bottom;verticalAlign=top;align=center;html=1;shape=mxgraph.aws3.efs_share;fillColor=#E05243;gradientColor=none;" vertex="1" parent="1">
          <mxGeometry x="359" y="530" width="69" height="63" as="geometry" />
        </mxCell>
        <mxCell id="8Y0MOXK_Wzp6ZwByNxdc-8" value="" style="sketch=0;points=[[0,0,0],[0.25,0,0],[0.5,0,0],[0.75,0,0],[1,0,0],[0,1,0],[0.25,1,0],[0.5,1,0],[0.75,1,0],[1,1,0],[0,0.25,0],[0,0.5,0],[0,0.75,0],[1,0.25,0],[1,0.5,0],[1,0.75,0]];outlineConnect=0;fontColor=#232F3E;fillColor=#7AA116;strokeColor=#ffffff;dashed=0;verticalLabelPosition=bottom;verticalAlign=top;align=center;html=1;fontSize=12;fontStyle=0;aspect=fixed;shape=mxgraph.aws4.resourceIcon;resIcon=mxgraph.aws4.elastic_file_system;" vertex="1" parent="1">
          <mxGeometry x="556" y="326" width="54" height="54" as="geometry" />
        </mxCell>
      </root>
    </mxGraphModel>
  </diagram>
</mxfile>
